<mxfile host="Electron" modified="2023-05-08T16:10:28.869Z" agent="Mozilla/5.0 (Windows NT 10.0; Win64; x64) AppleWebKit/537.36 (KHTML, like Gecko) draw.io/21.2.8 Chrome/112.0.5615.165 Electron/24.2.0 Safari/537.36" etag="VEZbhotijUw1_amOc07S" version="21.2.8" type="device" pages="4">
  <diagram name="interactive_agent" id="QBkfYE7tcayN_wwtel-I">
    <mxGraphModel dx="1434" dy="836" grid="1" gridSize="10" guides="1" tooltips="1" connect="1" arrows="1" fold="1" page="1" pageScale="1" pageWidth="1169" pageHeight="827" math="0" shadow="0">
      <root>
        <mxCell id="0" />
        <mxCell id="1" parent="0" />
        <mxCell id="tEsb7tDBGiYdi8axwtda-18" style="edgeStyle=orthogonalEdgeStyle;rounded=0;orthogonalLoop=1;jettySize=auto;html=1;startArrow=classic;startFill=1;" parent="1" source="tEsb7tDBGiYdi8axwtda-1" target="tEsb7tDBGiYdi8axwtda-6" edge="1">
          <mxGeometry relative="1" as="geometry" />
        </mxCell>
        <mxCell id="tEsb7tDBGiYdi8axwtda-1" value="" style="sketch=0;pointerEvents=1;shadow=0;dashed=0;html=1;strokeColor=none;fillColor=#434445;aspect=fixed;labelPosition=center;verticalLabelPosition=bottom;verticalAlign=top;align=center;outlineConnect=0;shape=mxgraph.vvd.web_browser;" parent="1" vertex="1">
          <mxGeometry x="165.07" y="230" width="154.93" height="110" as="geometry" />
        </mxCell>
        <mxCell id="tEsb7tDBGiYdi8axwtda-5" value="" style="ellipse;shape=cloud;whiteSpace=wrap;html=1;" parent="1" vertex="1">
          <mxGeometry x="143.85" y="386" width="420" height="210" as="geometry" />
        </mxCell>
        <mxCell id="tEsb7tDBGiYdi8axwtda-19" style="edgeStyle=orthogonalEdgeStyle;rounded=0;orthogonalLoop=1;jettySize=auto;html=1;entryX=0.528;entryY=0.124;entryDx=0;entryDy=0;entryPerimeter=0;startArrow=classic;startFill=1;" parent="1" source="tEsb7tDBGiYdi8axwtda-6" target="tEsb7tDBGiYdi8axwtda-5" edge="1">
          <mxGeometry relative="1" as="geometry" />
        </mxCell>
        <mxCell id="tEsb7tDBGiYdi8axwtda-6" value="" style="sketch=0;outlineConnect=0;fontColor=#232F3E;gradientColor=none;fillColor=#232F3D;strokeColor=none;dashed=0;verticalLabelPosition=bottom;verticalAlign=top;align=center;html=1;fontSize=12;fontStyle=0;aspect=fixed;pointerEvents=1;shape=mxgraph.aws4.traditional_server;" parent="1" vertex="1">
          <mxGeometry x="530" y="230" width="63.46" height="110" as="geometry" />
        </mxCell>
        <mxCell id="tEsb7tDBGiYdi8axwtda-7" value="" style="sketch=0;outlineConnect=0;fontColor=#232F3E;gradientColor=none;fillColor=#232F3D;strokeColor=none;dashed=0;verticalLabelPosition=bottom;verticalAlign=top;align=center;html=1;fontSize=12;fontStyle=0;aspect=fixed;pointerEvents=1;shape=mxgraph.aws4.traditional_server;" parent="1" vertex="1">
          <mxGeometry x="455.57" y="450" width="17.31" height="30" as="geometry" />
        </mxCell>
        <mxCell id="tEsb7tDBGiYdi8axwtda-8" value="" style="sketch=0;outlineConnect=0;fontColor=#232F3E;gradientColor=none;fillColor=#232F3D;strokeColor=none;dashed=0;verticalLabelPosition=bottom;verticalAlign=top;align=center;html=1;fontSize=12;fontStyle=0;aspect=fixed;pointerEvents=1;shape=mxgraph.aws4.traditional_server;" parent="1" vertex="1">
          <mxGeometry x="230" y="450.66" width="34.23" height="59.34" as="geometry" />
        </mxCell>
        <mxCell id="tEsb7tDBGiYdi8axwtda-9" value="" style="sketch=0;outlineConnect=0;fontColor=#232F3E;gradientColor=none;fillColor=#232F3D;strokeColor=none;dashed=0;verticalLabelPosition=bottom;verticalAlign=top;align=center;html=1;fontSize=12;fontStyle=0;aspect=fixed;pointerEvents=1;shape=mxgraph.aws4.traditional_server;" parent="1" vertex="1">
          <mxGeometry x="380" y="497" width="43.85" height="76" as="geometry" />
        </mxCell>
        <mxCell id="tEsb7tDBGiYdi8axwtda-10" value="" style="sketch=0;outlineConnect=0;fontColor=#232F3E;gradientColor=none;fillColor=#232F3D;strokeColor=none;dashed=0;verticalLabelPosition=bottom;verticalAlign=top;align=center;html=1;fontSize=12;fontStyle=0;aspect=fixed;pointerEvents=1;shape=mxgraph.aws4.traditional_server;" parent="1" vertex="1">
          <mxGeometry x="320" y="420" width="34.61" height="60" as="geometry" />
        </mxCell>
        <mxCell id="tEsb7tDBGiYdi8axwtda-12" value="" style="endArrow=none;html=1;rounded=0;" parent="1" source="tEsb7tDBGiYdi8axwtda-9" target="tEsb7tDBGiYdi8axwtda-7" edge="1">
          <mxGeometry width="50" height="50" relative="1" as="geometry">
            <mxPoint x="700" y="400" as="sourcePoint" />
            <mxPoint x="750" y="350" as="targetPoint" />
          </mxGeometry>
        </mxCell>
        <mxCell id="tEsb7tDBGiYdi8axwtda-13" value="" style="endArrow=none;html=1;rounded=0;" parent="1" source="tEsb7tDBGiYdi8axwtda-10" target="tEsb7tDBGiYdi8axwtda-7" edge="1">
          <mxGeometry width="50" height="50" relative="1" as="geometry">
            <mxPoint x="710" y="410" as="sourcePoint" />
            <mxPoint x="770" y="440" as="targetPoint" />
          </mxGeometry>
        </mxCell>
        <mxCell id="tEsb7tDBGiYdi8axwtda-14" value="" style="endArrow=none;html=1;rounded=0;" parent="1" source="tEsb7tDBGiYdi8axwtda-8" target="tEsb7tDBGiYdi8axwtda-10" edge="1">
          <mxGeometry width="50" height="50" relative="1" as="geometry">
            <mxPoint x="720" y="420" as="sourcePoint" />
            <mxPoint x="770" y="370" as="targetPoint" />
          </mxGeometry>
        </mxCell>
        <mxCell id="tEsb7tDBGiYdi8axwtda-15" value="" style="endArrow=none;html=1;rounded=0;" parent="1" source="tEsb7tDBGiYdi8axwtda-10" target="tEsb7tDBGiYdi8axwtda-9" edge="1">
          <mxGeometry width="50" height="50" relative="1" as="geometry">
            <mxPoint x="730" y="430" as="sourcePoint" />
            <mxPoint x="780" y="380" as="targetPoint" />
          </mxGeometry>
        </mxCell>
        <mxCell id="tEsb7tDBGiYdi8axwtda-16" value="" style="endArrow=none;html=1;rounded=0;" parent="1" source="tEsb7tDBGiYdi8axwtda-9" target="tEsb7tDBGiYdi8axwtda-8" edge="1">
          <mxGeometry width="50" height="50" relative="1" as="geometry">
            <mxPoint x="740" y="440" as="sourcePoint" />
            <mxPoint x="790" y="390" as="targetPoint" />
          </mxGeometry>
        </mxCell>
        <mxCell id="tEsb7tDBGiYdi8axwtda-17" value="" style="endArrow=none;html=1;rounded=0;" parent="1" source="tEsb7tDBGiYdi8axwtda-8" target="tEsb7tDBGiYdi8axwtda-7" edge="1">
          <mxGeometry width="50" height="50" relative="1" as="geometry">
            <mxPoint x="750" y="450" as="sourcePoint" />
            <mxPoint x="650" y="510" as="targetPoint" />
          </mxGeometry>
        </mxCell>
        <mxCell id="tEsb7tDBGiYdi8axwtda-20" value="Petals Network" style="text;html=1;strokeColor=none;fillColor=none;align=center;verticalAlign=middle;whiteSpace=wrap;rounded=0;" parent="1" vertex="1">
          <mxGeometry x="452.68999999999994" y="500" width="60" height="30" as="geometry" />
        </mxCell>
        <mxCell id="tEsb7tDBGiYdi8axwtda-21" value="websocket" style="text;html=1;strokeColor=none;fillColor=none;align=center;verticalAlign=middle;whiteSpace=wrap;rounded=0;" parent="1" vertex="1">
          <mxGeometry x="434.23" y="340" width="60" height="30" as="geometry" />
        </mxCell>
        <mxCell id="tEsb7tDBGiYdi8axwtda-22" value="HTTP, websocket" style="text;html=1;strokeColor=none;fillColor=none;align=center;verticalAlign=middle;whiteSpace=wrap;rounded=0;" parent="1" vertex="1">
          <mxGeometry x="374.23" y="250" width="60" height="30" as="geometry" />
        </mxCell>
        <mxCell id="tEsb7tDBGiYdi8axwtda-23" value="server" style="text;html=1;strokeColor=none;fillColor=none;align=center;verticalAlign=middle;whiteSpace=wrap;rounded=0;" parent="1" vertex="1">
          <mxGeometry x="531.73" y="300" width="60" height="30" as="geometry" />
        </mxCell>
        <mxCell id="tEsb7tDBGiYdi8axwtda-24" value="web application" style="text;html=1;strokeColor=none;fillColor=none;align=center;verticalAlign=middle;whiteSpace=wrap;rounded=0;" parent="1" vertex="1">
          <mxGeometry x="212.53000000000003" y="350" width="60" height="30" as="geometry" />
        </mxCell>
        <mxCell id="4lF3FZ41PqaCdhH6p4sq-1" value="" style="pointerEvents=1;verticalLabelPosition=bottom;shadow=0;dashed=0;align=center;html=1;verticalAlign=top;shape=mxgraph.electrical.electro-mechanical.loudspeaker;" parent="1" vertex="1">
          <mxGeometry x="180" y="270" width="25" height="50" as="geometry" />
        </mxCell>
      </root>
    </mxGraphModel>
  </diagram>
  <diagram id="JfxMVVEUDMP7B0Ev1eAB" name="facial_recognition_system">
    <mxGraphModel dx="1434" dy="836" grid="1" gridSize="10" guides="1" tooltips="1" connect="1" arrows="1" fold="1" page="1" pageScale="1" pageWidth="1169" pageHeight="827" math="0" shadow="0">
      <root>
        <mxCell id="0" />
        <mxCell id="1" parent="0" />
        <mxCell id="_FgdOw06S7kGgFGvocNh-1" style="edgeStyle=orthogonalEdgeStyle;rounded=0;orthogonalLoop=1;jettySize=auto;html=1;startArrow=classic;startFill=1;" parent="1" source="_FgdOw06S7kGgFGvocNh-2" target="_FgdOw06S7kGgFGvocNh-5" edge="1">
          <mxGeometry relative="1" as="geometry" />
        </mxCell>
        <mxCell id="_FgdOw06S7kGgFGvocNh-2" value="" style="sketch=0;pointerEvents=1;shadow=0;dashed=0;html=1;strokeColor=none;fillColor=#434445;aspect=fixed;labelPosition=center;verticalLabelPosition=bottom;verticalAlign=top;align=center;outlineConnect=0;shape=mxgraph.vvd.web_browser;" parent="1" vertex="1">
          <mxGeometry x="210" y="230" width="154.93" height="110" as="geometry" />
        </mxCell>
        <mxCell id="_FgdOw06S7kGgFGvocNh-26" style="edgeStyle=orthogonalEdgeStyle;rounded=0;orthogonalLoop=1;jettySize=auto;html=1;startArrow=classic;startFill=1;" parent="1" source="_FgdOw06S7kGgFGvocNh-5" target="_FgdOw06S7kGgFGvocNh-25" edge="1">
          <mxGeometry relative="1" as="geometry" />
        </mxCell>
        <mxCell id="_FgdOw06S7kGgFGvocNh-5" value="" style="sketch=0;outlineConnect=0;fontColor=#232F3E;gradientColor=none;fillColor=#232F3D;strokeColor=none;dashed=0;verticalLabelPosition=bottom;verticalAlign=top;align=center;html=1;fontSize=12;fontStyle=0;aspect=fixed;pointerEvents=1;shape=mxgraph.aws4.traditional_server;" parent="1" vertex="1">
          <mxGeometry x="530" y="230" width="63.46" height="110" as="geometry" />
        </mxCell>
        <mxCell id="_FgdOw06S7kGgFGvocNh-18" value="HTTP, websocket" style="text;html=1;strokeColor=none;fillColor=none;align=center;verticalAlign=middle;whiteSpace=wrap;rounded=0;" parent="1" vertex="1">
          <mxGeometry x="430" y="250" width="60" height="30" as="geometry" />
        </mxCell>
        <mxCell id="_FgdOw06S7kGgFGvocNh-19" value="webserver" style="text;html=1;strokeColor=none;fillColor=none;align=center;verticalAlign=middle;whiteSpace=wrap;rounded=0;" parent="1" vertex="1">
          <mxGeometry x="470" y="310" width="60" height="30" as="geometry" />
        </mxCell>
        <mxCell id="_FgdOw06S7kGgFGvocNh-20" value="web application" style="text;html=1;strokeColor=none;fillColor=none;align=center;verticalAlign=middle;whiteSpace=wrap;rounded=0;" parent="1" vertex="1">
          <mxGeometry x="257.46000000000004" y="350" width="60" height="30" as="geometry" />
        </mxCell>
        <mxCell id="_FgdOw06S7kGgFGvocNh-23" value="" style="shape=mxgraph.signs.tech.video_camera;html=1;pointerEvents=1;fillColor=#000000;strokeColor=none;verticalLabelPosition=bottom;verticalAlign=top;align=center;" parent="1" vertex="1">
          <mxGeometry x="220" y="300" width="50" height="20" as="geometry" />
        </mxCell>
        <mxCell id="_FgdOw06S7kGgFGvocNh-25" value="" style="shape=datastore;whiteSpace=wrap;html=1;" parent="1" vertex="1">
          <mxGeometry x="531.73" y="370" width="60" height="60" as="geometry" />
        </mxCell>
        <mxCell id="_FgdOw06S7kGgFGvocNh-27" value="face embeddings" style="text;html=1;strokeColor=none;fillColor=none;align=center;verticalAlign=middle;whiteSpace=wrap;rounded=0;" parent="1" vertex="1">
          <mxGeometry x="440" y="385" width="80" height="30" as="geometry" />
        </mxCell>
      </root>
    </mxGraphModel>
  </diagram>
  <diagram id="U7ULDTO3szXY4V5rM9LT" name="canny_interactive_agent">
    <mxGraphModel dx="1247" dy="727" grid="1" gridSize="10" guides="1" tooltips="1" connect="1" arrows="1" fold="1" page="1" pageScale="1" pageWidth="1169" pageHeight="827" math="0" shadow="0">
      <root>
        <mxCell id="0" />
        <mxCell id="1" parent="0" />
        <mxCell id="DdRa9whchyb4AeuoqsYr-3" value="" style="endArrow=classic;html=1;rounded=0;" edge="1" parent="1">
          <mxGeometry width="50" height="50" relative="1" as="geometry">
            <mxPoint x="120" y="400" as="sourcePoint" />
            <mxPoint x="120" y="40" as="targetPoint" />
          </mxGeometry>
        </mxCell>
        <mxCell id="DdRa9whchyb4AeuoqsYr-4" value="" style="endArrow=classic;html=1;rounded=0;" edge="1" parent="1">
          <mxGeometry width="50" height="50" relative="1" as="geometry">
            <mxPoint x="120" y="240" as="sourcePoint" />
            <mxPoint x="520" y="240" as="targetPoint" />
          </mxGeometry>
        </mxCell>
        <mxCell id="DdRa9whchyb4AeuoqsYr-9" value="" style="curved=1;endArrow=none;html=1;rounded=0;endFill=0;" edge="1" parent="1">
          <mxGeometry width="50" height="50" relative="1" as="geometry">
            <mxPoint x="150" y="210" as="sourcePoint" />
            <mxPoint x="500" y="80" as="targetPoint" />
            <Array as="points">
              <mxPoint x="270" y="70" />
              <mxPoint x="440" y="460" />
            </Array>
          </mxGeometry>
        </mxCell>
        <mxCell id="DdRa9whchyb4AeuoqsYr-10" value="&lt;b&gt;Usability&lt;/b&gt;" style="text;html=1;strokeColor=none;fillColor=none;align=center;verticalAlign=middle;whiteSpace=wrap;rounded=0;rotation=-90;" vertex="1" parent="1">
          <mxGeometry x="80" y="120" width="60" height="30" as="geometry" />
        </mxCell>
        <mxCell id="DdRa9whchyb4AeuoqsYr-12" value="&lt;b&gt;Flexibility&lt;br&gt;&lt;/b&gt;" style="text;html=1;strokeColor=none;fillColor=none;align=center;verticalAlign=middle;whiteSpace=wrap;rounded=0;rotation=0;" vertex="1" parent="1">
          <mxGeometry x="260" y="240" width="60" height="30" as="geometry" />
        </mxCell>
        <mxCell id="DdRa9whchyb4AeuoqsYr-13" value="" style="endArrow=classic;html=1;rounded=0;" edge="1" parent="1" source="DdRa9whchyb4AeuoqsYr-19">
          <mxGeometry width="50" height="50" relative="1" as="geometry">
            <mxPoint x="180" y="280" as="sourcePoint" />
            <mxPoint x="150" y="210" as="targetPoint" />
          </mxGeometry>
        </mxCell>
        <mxCell id="DdRa9whchyb4AeuoqsYr-14" value="Structured Dialog" style="text;html=1;strokeColor=none;fillColor=none;align=center;verticalAlign=middle;whiteSpace=wrap;rounded=0;rotation=0;" vertex="1" parent="1">
          <mxGeometry x="150" y="290" width="60" height="30" as="geometry" />
        </mxCell>
        <mxCell id="DdRa9whchyb4AeuoqsYr-15" value="" style="endArrow=classic;html=1;rounded=0;" edge="1" parent="1">
          <mxGeometry width="50" height="50" relative="1" as="geometry">
            <mxPoint x="186" y="125" as="sourcePoint" />
            <mxPoint x="205.9999999999999" y="154.99999999999994" as="targetPoint" />
          </mxGeometry>
        </mxCell>
        <mxCell id="DdRa9whchyb4AeuoqsYr-16" value="Natural Language/&lt;br&gt;Dialog" style="text;html=1;strokeColor=none;fillColor=none;align=center;verticalAlign=middle;whiteSpace=wrap;rounded=0;rotation=0;" vertex="1" parent="1">
          <mxGeometry x="160" y="70" width="60" height="60" as="geometry" />
        </mxCell>
        <mxCell id="DdRa9whchyb4AeuoqsYr-17" value="Human Like" style="text;html=1;strokeColor=none;fillColor=none;align=center;verticalAlign=middle;whiteSpace=wrap;rounded=0;rotation=0;" vertex="1" parent="1">
          <mxGeometry x="410" y="60" width="60" height="40" as="geometry" />
        </mxCell>
        <mxCell id="DdRa9whchyb4AeuoqsYr-18" value="" style="endArrow=classic;html=1;rounded=0;exitX=1;exitY=0.5;exitDx=0;exitDy=0;" edge="1" parent="1">
          <mxGeometry width="50" height="50" relative="1" as="geometry">
            <mxPoint x="464.0000000000001" y="80.00000000000003" as="sourcePoint" />
            <mxPoint x="493.9999999999999" y="80.00000000000003" as="targetPoint" />
          </mxGeometry>
        </mxCell>
        <mxCell id="DdRa9whchyb4AeuoqsYr-20" value="" style="endArrow=classic;html=1;rounded=0;entryX=0.707;entryY=0.929;entryDx=0;entryDy=0;entryPerimeter=0;" edge="1" parent="1">
          <mxGeometry width="50" height="50" relative="1" as="geometry">
            <mxPoint x="182" y="286" as="sourcePoint" />
            <mxPoint x="152" y="216" as="targetPoint" />
          </mxGeometry>
        </mxCell>
        <mxCell id="DdRa9whchyb4AeuoqsYr-19" value="" style="shape=waypoint;sketch=0;fillStyle=solid;size=6;pointerEvents=1;points=[];fillColor=none;resizable=0;rotatable=0;perimeter=centerPerimeter;snapToPoint=1;" vertex="1" parent="1">
          <mxGeometry x="140" y="200" width="20" height="20" as="geometry" />
        </mxCell>
        <mxCell id="DdRa9whchyb4AeuoqsYr-21" value="" style="shape=waypoint;sketch=0;fillStyle=solid;size=6;pointerEvents=1;points=[];fillColor=none;resizable=0;rotatable=0;perimeter=centerPerimeter;snapToPoint=1;" vertex="1" parent="1">
          <mxGeometry x="200" y="150" width="20" height="20" as="geometry" />
        </mxCell>
        <mxCell id="DdRa9whchyb4AeuoqsYr-22" value="" style="shape=waypoint;sketch=0;fillStyle=solid;size=6;pointerEvents=1;points=[];fillColor=none;resizable=0;rotatable=0;perimeter=centerPerimeter;snapToPoint=1;" vertex="1" parent="1">
          <mxGeometry x="490" y="70" width="20" height="20" as="geometry" />
        </mxCell>
        <mxCell id="DdRa9whchyb4AeuoqsYr-23" value="" style="shape=waypoint;sketch=0;fillStyle=solid;size=6;pointerEvents=1;points=[];fillColor=none;resizable=0;rotatable=0;perimeter=centerPerimeter;snapToPoint=1;" vertex="1" parent="1">
          <mxGeometry x="360" y="100" width="20" height="20" as="geometry" />
        </mxCell>
        <mxCell id="DdRa9whchyb4AeuoqsYr-28" value="Technological&lt;br&gt;Gap" style="text;html=1;strokeColor=none;fillColor=none;align=center;verticalAlign=middle;whiteSpace=wrap;rounded=0;rotation=0;" vertex="1" parent="1">
          <mxGeometry x="270" y="80" width="60" height="40" as="geometry" />
        </mxCell>
        <mxCell id="DdRa9whchyb4AeuoqsYr-29" value="" style="endArrow=classic;html=1;rounded=0;exitX=1;exitY=0.5;exitDx=0;exitDy=0;" edge="1" parent="1">
          <mxGeometry width="50" height="50" relative="1" as="geometry">
            <mxPoint x="333.0000000000001" y="109.00000000000003" as="sourcePoint" />
            <mxPoint x="362.9999999999999" y="109.00000000000003" as="targetPoint" />
          </mxGeometry>
        </mxCell>
      </root>
    </mxGraphModel>
  </diagram>
  <diagram id="7dH9mZZWTTU908PkIfGO" name="generic_architecture">
    <mxGraphModel dx="583" dy="345" grid="1" gridSize="10" guides="1" tooltips="1" connect="1" arrows="1" fold="1" page="1" pageScale="1" pageWidth="1169" pageHeight="827" math="0" shadow="0">
      <root>
        <mxCell id="0" />
        <mxCell id="1" parent="0" />
        <mxCell id="Ve1gQ4241AMQgEvfitW9-58" style="edgeStyle=orthogonalEdgeStyle;rounded=0;orthogonalLoop=1;jettySize=auto;html=1;exitX=1;exitY=0.75;exitDx=0;exitDy=0;entryX=0;entryY=0.75;entryDx=0;entryDy=0;" edge="1" parent="1" source="Ve1gQ4241AMQgEvfitW9-47" target="Ve1gQ4241AMQgEvfitW9-23">
          <mxGeometry relative="1" as="geometry">
            <Array as="points">
              <mxPoint x="550" y="370" />
              <mxPoint x="550" y="348" />
            </Array>
          </mxGeometry>
        </mxCell>
        <mxCell id="Ve1gQ4241AMQgEvfitW9-47" value="" style="rounded=0;whiteSpace=wrap;html=1;dashed=1;" vertex="1" parent="1">
          <mxGeometry x="340" y="250" width="200" height="160" as="geometry" />
        </mxCell>
        <mxCell id="Ve1gQ4241AMQgEvfitW9-2" value="" style="rounded=0;whiteSpace=wrap;html=1;" vertex="1" parent="1">
          <mxGeometry x="240" y="30" width="470" height="200" as="geometry" />
        </mxCell>
        <mxCell id="Ve1gQ4241AMQgEvfitW9-29" style="edgeStyle=orthogonalEdgeStyle;rounded=0;orthogonalLoop=1;jettySize=auto;html=1;" edge="1" parent="1" source="Ve1gQ4241AMQgEvfitW9-3">
          <mxGeometry relative="1" as="geometry">
            <mxPoint x="220" y="150" as="targetPoint" />
          </mxGeometry>
        </mxCell>
        <mxCell id="Ve1gQ4241AMQgEvfitW9-3" value="Speech&lt;br&gt;Generation&lt;br&gt;(TTS)" style="rounded=0;whiteSpace=wrap;html=1;" vertex="1" parent="1">
          <mxGeometry x="260" y="120" width="120" height="60" as="geometry" />
        </mxCell>
        <mxCell id="Ve1gQ4241AMQgEvfitW9-32" style="edgeStyle=orthogonalEdgeStyle;rounded=0;orthogonalLoop=1;jettySize=auto;html=1;" edge="1" parent="1" source="Ve1gQ4241AMQgEvfitW9-4" target="Ve1gQ4241AMQgEvfitW9-3">
          <mxGeometry relative="1" as="geometry" />
        </mxCell>
        <mxCell id="Ve1gQ4241AMQgEvfitW9-4" value="Natural Language Generation&lt;br&gt;(NLG)" style="rounded=0;whiteSpace=wrap;html=1;" vertex="1" parent="1">
          <mxGeometry x="420" y="120" width="120" height="60" as="geometry" />
        </mxCell>
        <mxCell id="Ve1gQ4241AMQgEvfitW9-34" style="edgeStyle=orthogonalEdgeStyle;rounded=0;orthogonalLoop=1;jettySize=auto;html=1;exitX=1;exitY=0.5;exitDx=0;exitDy=0;entryX=0;entryY=0.5;entryDx=0;entryDy=0;" edge="1" parent="1" source="Ve1gQ4241AMQgEvfitW9-5" target="Ve1gQ4241AMQgEvfitW9-6">
          <mxGeometry relative="1" as="geometry" />
        </mxCell>
        <mxCell id="Ve1gQ4241AMQgEvfitW9-5" value="Speech&lt;br&gt;Recognition&lt;br&gt;(ASR)" style="rounded=0;whiteSpace=wrap;html=1;" vertex="1" parent="1">
          <mxGeometry x="260" y="40" width="120" height="60" as="geometry" />
        </mxCell>
        <mxCell id="Ve1gQ4241AMQgEvfitW9-59" style="edgeStyle=orthogonalEdgeStyle;rounded=0;orthogonalLoop=1;jettySize=auto;html=1;entryX=0.002;entryY=0.214;entryDx=0;entryDy=0;entryPerimeter=0;" edge="1" parent="1" source="Ve1gQ4241AMQgEvfitW9-6" target="Ve1gQ4241AMQgEvfitW9-7">
          <mxGeometry relative="1" as="geometry">
            <Array as="points">
              <mxPoint x="560" y="70" />
              <mxPoint x="560" y="70" />
            </Array>
          </mxGeometry>
        </mxCell>
        <mxCell id="Ve1gQ4241AMQgEvfitW9-6" value="Natural Language Understanding&lt;br&gt;(NLU)" style="rounded=0;whiteSpace=wrap;html=1;" vertex="1" parent="1">
          <mxGeometry x="420" y="40" width="120" height="60" as="geometry" />
        </mxCell>
        <mxCell id="Ve1gQ4241AMQgEvfitW9-55" style="edgeStyle=orthogonalEdgeStyle;rounded=0;orthogonalLoop=1;jettySize=auto;html=1;exitX=0.25;exitY=1;exitDx=0;exitDy=0;entryX=0.25;entryY=0;entryDx=0;entryDy=0;startArrow=classic;startFill=1;endArrow=none;endFill=0;" edge="1" parent="1" source="Ve1gQ4241AMQgEvfitW9-7" target="Ve1gQ4241AMQgEvfitW9-23">
          <mxGeometry relative="1" as="geometry" />
        </mxCell>
        <mxCell id="Ve1gQ4241AMQgEvfitW9-60" style="edgeStyle=orthogonalEdgeStyle;rounded=0;orthogonalLoop=1;jettySize=auto;html=1;exitX=0;exitY=0.75;exitDx=0;exitDy=0;" edge="1" parent="1" source="Ve1gQ4241AMQgEvfitW9-7" target="Ve1gQ4241AMQgEvfitW9-4">
          <mxGeometry relative="1" as="geometry">
            <Array as="points">
              <mxPoint x="570" y="150" />
            </Array>
          </mxGeometry>
        </mxCell>
        <mxCell id="Ve1gQ4241AMQgEvfitW9-7" value="Dialog&lt;br&gt;Manager" style="rounded=0;whiteSpace=wrap;html=1;" vertex="1" parent="1">
          <mxGeometry x="570" y="40" width="120" height="140" as="geometry" />
        </mxCell>
        <mxCell id="Ve1gQ4241AMQgEvfitW9-14" value="Interactive Agent" style="text;html=1;strokeColor=none;fillColor=none;align=center;verticalAlign=middle;whiteSpace=wrap;rounded=0;" vertex="1" parent="1">
          <mxGeometry x="260" y="190" width="100" height="30" as="geometry" />
        </mxCell>
        <mxCell id="Ve1gQ4241AMQgEvfitW9-15" value="" style="shape=mxgraph.arrows2.wedgeArrowDashed2;html=1;bendable=0;startWidth=13.103448275862071;stepSize=15;rounded=0;entryX=0.945;entryY=0.45;entryDx=0;entryDy=0;entryPerimeter=0;" edge="1" parent="1" target="Ve1gQ4241AMQgEvfitW9-27">
          <mxGeometry width="100" height="100" relative="1" as="geometry">
            <mxPoint x="190" y="78" as="sourcePoint" />
            <mxPoint x="160" y="79.66" as="targetPoint" />
          </mxGeometry>
        </mxCell>
        <mxCell id="Ve1gQ4241AMQgEvfitW9-17" value="User" style="shape=umlActor;verticalLabelPosition=bottom;verticalAlign=top;html=1;outlineConnect=0;" vertex="1" parent="1">
          <mxGeometry x="30" y="90" width="65" height="130" as="geometry" />
        </mxCell>
        <mxCell id="Ve1gQ4241AMQgEvfitW9-54" style="edgeStyle=orthogonalEdgeStyle;rounded=0;orthogonalLoop=1;jettySize=auto;html=1;exitX=0.75;exitY=0;exitDx=0;exitDy=0;entryX=0.75;entryY=1;entryDx=0;entryDy=0;endArrow=none;endFill=0;startArrow=classic;startFill=1;" edge="1" parent="1" source="Ve1gQ4241AMQgEvfitW9-23" target="Ve1gQ4241AMQgEvfitW9-7">
          <mxGeometry relative="1" as="geometry" />
        </mxCell>
        <mxCell id="Ve1gQ4241AMQgEvfitW9-56" style="edgeStyle=orthogonalEdgeStyle;rounded=0;orthogonalLoop=1;jettySize=auto;html=1;exitX=0;exitY=0.25;exitDx=0;exitDy=0;entryX=1.002;entryY=0.2;entryDx=0;entryDy=0;entryPerimeter=0;" edge="1" parent="1" source="Ve1gQ4241AMQgEvfitW9-23" target="Ve1gQ4241AMQgEvfitW9-47">
          <mxGeometry relative="1" as="geometry" />
        </mxCell>
        <mxCell id="Ve1gQ4241AMQgEvfitW9-23" value="Digital Systems&lt;br&gt;(Online API, Local Computer Vision Algorithms, etc.)" style="rounded=0;whiteSpace=wrap;html=1;" vertex="1" parent="1">
          <mxGeometry x="570" y="250" width="120" height="130" as="geometry" />
        </mxCell>
        <mxCell id="Ve1gQ4241AMQgEvfitW9-26" value="" style="pointerEvents=1;verticalLabelPosition=bottom;shadow=0;dashed=0;align=center;html=1;verticalAlign=top;shape=mxgraph.electrical.electro-mechanical.loudspeaker;rotation=-180;" vertex="1" parent="1">
          <mxGeometry x="195" y="125" width="25" height="50" as="geometry" />
        </mxCell>
        <mxCell id="Ve1gQ4241AMQgEvfitW9-27" value="..." style="whiteSpace=wrap;html=1;shape=mxgraph.basic.oval_callout" vertex="1" parent="1">
          <mxGeometry x="80" y="60" width="70" height="40" as="geometry" />
        </mxCell>
        <mxCell id="Ve1gQ4241AMQgEvfitW9-31" style="edgeStyle=orthogonalEdgeStyle;rounded=0;orthogonalLoop=1;jettySize=auto;html=1;" edge="1" parent="1" source="Ve1gQ4241AMQgEvfitW9-28" target="Ve1gQ4241AMQgEvfitW9-5">
          <mxGeometry relative="1" as="geometry" />
        </mxCell>
        <mxCell id="Ve1gQ4241AMQgEvfitW9-28" value="" style="html=1;verticalLabelPosition=bottom;align=center;labelBackgroundColor=#ffffff;verticalAlign=top;strokeWidth=1;strokeColor=#000000;shadow=0;dashed=0;shape=mxgraph.ios7.icons.microphone;" vertex="1" parent="1">
          <mxGeometry x="201.5" y="55" width="12" height="30" as="geometry" />
        </mxCell>
        <mxCell id="Ve1gQ4241AMQgEvfitW9-39" value="" style="shape=mxgraph.arrows2.wedgeArrowDashed2;html=1;bendable=0;startWidth=22.857142857142854;stepSize=15;rounded=0;" edge="1" parent="1">
          <mxGeometry width="100" height="100" relative="1" as="geometry">
            <mxPoint x="110" y="130" as="sourcePoint" />
            <mxPoint x="190" y="150" as="targetPoint" />
          </mxGeometry>
        </mxCell>
        <mxCell id="Ve1gQ4241AMQgEvfitW9-40" value="M" style="verticalLabelPosition=middle;shadow=0;dashed=0;align=center;html=1;verticalAlign=middle;strokeWidth=1;shape=ellipse;aspect=fixed;fontSize=35;" vertex="1" parent="1">
          <mxGeometry x="453.18000000000006" y="258" width="60" height="60" as="geometry" />
        </mxCell>
        <mxCell id="Ve1gQ4241AMQgEvfitW9-41" value="" style="html=1;verticalLabelPosition=bottom;align=center;labelBackgroundColor=#ffffff;verticalAlign=top;strokeWidth=1;strokeColor=#000000;shadow=0;dashed=0;shape=mxgraph.ios7.icons.lightbulb;" vertex="1" parent="1">
          <mxGeometry x="427.8299999999999" y="334" width="30.71" height="40" as="geometry" />
        </mxCell>
        <mxCell id="Ve1gQ4241AMQgEvfitW9-44" value="" style="sketch=0;outlineConnect=0;fontColor=#232F3E;gradientColor=none;fillColor=#000000;strokeColor=none;dashed=0;verticalLabelPosition=bottom;verticalAlign=top;align=center;html=1;fontSize=12;fontStyle=0;aspect=fixed;pointerEvents=1;shape=mxgraph.aws4.iot_thing_vibration_sensor;" vertex="1" parent="1">
          <mxGeometry x="347.81999999999994" y="326" width="56" height="56" as="geometry" />
        </mxCell>
        <mxCell id="Ve1gQ4241AMQgEvfitW9-46" value="" style="sketch=0;outlineConnect=0;fontColor=#232F3E;gradientColor=none;fillColor=#000000;strokeColor=none;dashed=0;verticalLabelPosition=bottom;verticalAlign=top;align=center;html=1;fontSize=12;fontStyle=0;aspect=fixed;pointerEvents=1;shape=mxgraph.aws4.iot_thing_temperature_humidity_sensor;strokeWidth=1;" vertex="1" parent="1">
          <mxGeometry x="346.81999999999994" y="258" width="58" height="58" as="geometry" />
        </mxCell>
        <mxCell id="Ve1gQ4241AMQgEvfitW9-52" value="Physical actuators and sensors" style="text;html=1;strokeColor=none;fillColor=none;align=center;verticalAlign=middle;whiteSpace=wrap;rounded=0;" vertex="1" parent="1">
          <mxGeometry x="345" y="382" width="170" height="30" as="geometry" />
        </mxCell>
        <mxCell id="Ve1gQ4241AMQgEvfitW9-63" value="" style="sketch=0;outlineConnect=0;fontColor=#232F3E;gradientColor=none;strokeColor=#232F3E;fillColor=#ffffff;dashed=0;verticalLabelPosition=bottom;verticalAlign=top;align=center;html=1;fontSize=12;fontStyle=0;aspect=fixed;shape=mxgraph.aws4.resourceIcon;resIcon=mxgraph.aws4.camera;" vertex="1" parent="1">
          <mxGeometry x="480" y="326" width="60" height="60" as="geometry" />
        </mxCell>
      </root>
    </mxGraphModel>
  </diagram>
</mxfile>
